<svg width="20" height="20" viewBox="0 0 20 20" fill="none" xmlns="http://www.w3.org/2000/svg">
<path d="M14.1665 17.7084H5.83317C2.7915 17.7084 1.0415 15.9584 1.0415 12.9167V7.08342C1.0415 4.04175 2.7915 2.29175 5.83317 2.29175H14.1665C17.2082 2.29175 18.9582 4.04175 18.9582 7.08342V12.9167C18.9582 15.9584 17.2082 17.7084 14.1665 17.7084ZM5.83317 3.54175C3.44984 3.54175 2.2915 4.70008 2.2915 7.08342V12.9167C2.2915 15.3001 3.44984 16.4584 5.83317 16.4584H14.1665C16.5498 16.4584 17.7082 15.3001 17.7082 12.9167V7.08342C17.7082 4.70008 16.5498 3.54175 14.1665 3.54175H5.83317Z" fill="#212121"/>
<path d="M10 13.125C8.275 13.125 6.875 11.725 6.875 10C6.875 8.275 8.275 6.875 10 6.875C11.725 6.875 13.125 8.275 13.125 10C13.125 11.725 11.725 13.125 10 13.125ZM10 8.125C8.96667 8.125 8.125 8.96667 8.125 10C8.125 11.0333 8.96667 11.875 10 11.875C11.0333 11.875 11.875 11.0333 11.875 10C11.875 8.96667 11.0333 8.125 10 8.125Z" fill="#212121"/>
<path d="M2.49984 8.12492H1.6665C1.32484 8.12492 1.0415 7.84159 1.0415 7.49992C1.0415 7.15825 1.32484 6.87492 1.6665 6.87492H2.49984C4.64984 6.87492 5.20817 6.31659 5.20817 4.16659V3.33325C5.20817 2.99159 5.4915 2.70825 5.83317 2.70825C6.17484 2.70825 6.45817 2.99159 6.45817 3.33325V4.16659C6.45817 7.01659 5.34984 8.12492 2.49984 8.12492Z" fill="#212121"/>
<path d="M18.3332 8.12492H17.4998C14.6498 8.12492 13.5415 7.01659 13.5415 4.16659V3.33325C13.5415 2.99159 13.8248 2.70825 14.1665 2.70825C14.5082 2.70825 14.7915 2.99159 14.7915 3.33325V4.16659C14.7915 6.31659 15.3498 6.87492 17.4998 6.87492H18.3332C18.6748 6.87492 18.9582 7.15825 18.9582 7.49992C18.9582 7.84159 18.6748 8.12492 18.3332 8.12492Z" fill="#212121"/>
<path d="M5.83317 17.2917C5.4915 17.2917 5.20817 17.0083 5.20817 16.6667V15.8333C5.20817 13.6833 4.64984 13.125 2.49984 13.125H1.6665C1.32484 13.125 1.0415 12.8417 1.0415 12.5C1.0415 12.1583 1.32484 11.875 1.6665 11.875H2.49984C5.34984 11.875 6.45817 12.9833 6.45817 15.8333V16.6667C6.45817 17.0083 6.17484 17.2917 5.83317 17.2917Z" fill="#212121"/>
<path d="M14.1665 17.2917C13.8248 17.2917 13.5415 17.0083 13.5415 16.6667V15.8333C13.5415 12.9833 14.6498 11.875 17.4998 11.875H18.3332C18.6748 11.875 18.9582 12.1583 18.9582 12.5C18.9582 12.8417 18.6748 13.125 18.3332 13.125H17.4998C15.3498 13.125 14.7915 13.6833 14.7915 15.8333V16.6667C14.7915 17.0083 14.5082 17.2917 14.1665 17.2917Z" fill="#212121"/>
</svg>
